<?xml version="1.0" encoding="UTF-8" standalone="no"?>
<svg width="100px" height="100px" viewBox="0 0 100 100" version="1.1" xmlns="http://www.w3.org/2000/svg" xmlns:xlink="http://www.w3.org/1999/xlink">
    <!-- Generator: sketchtool 40.1 (33804) - http://www.bohemiancoding.com/sketch -->
    <title>assets-web-print/appicon@1x</title>
    <desc>Created with sketchtool.</desc>
    <defs></defs>
    <g id="page1" stroke="none" stroke-width="1" fill="none" fill-rule="evenodd">
        <g id="logo">
            <g id="Sensorama">
                <rect id="logo_back" fill="#C51162" style="mix-blend-mode: lighten;" x="0" y="0" width="100" height="100"></rect>
                <g id="main_logo" transform="translate(16.000000, 15.000000)" fill="#FFFFFF">
                    <rect id="sensorama_tx" x="0" y="40.675" width="28.3076923" height="29.325" rx="2.4"></rect>
                    <g id="wave" transform="translate(46.986662, 22.180568) rotate(-45.000000) translate(-46.986662, -22.180568) translate(32.486662, 5.680568)">
                        <rect id="wave_4" x="24.7692308" y="8.52651283e-14" width="3.53846154" height="32.775" rx="1.76923077"></rect>
                        <path d="M12.3846154,6.93465214 C12.3846154,5.9628231 13.1699147,5.175 14.1538462,5.175 L14.1538462,5.175 C15.1309653,5.175 15.9230769,5.97077408 15.9230769,6.93641514 L15.9230769,11.2623457 C15.9230769,12.2351484 15.9230769,13.8074428 15.9230769,14.7965213 L15.9230769,25.8272395 C15.9230769,26.8063081 15.1377776,27.6 14.1538462,27.6 L14.1538462,27.6 C13.176727,27.6 12.3846154,26.8018824 12.3846154,25.8403479 L12.3846154,6.93465214 Z" id="wave_3"></path>
                        <rect id="wave_2" x="-3.55271368e-14" y="10.35" width="3.53846154" height="12.075" rx="1.76923077"></rect>
                    </g>
                </g>
            </g>
        </g>
    </g>
</svg>